<svg width="1021" height="1027" viewBox="0 0 1021 1027" fill="none" xmlns="http://www.w3.org/2000/svg">
<path d="M769.427 839.176C798.147 804.919 866.507 713.85 872.586 583.936C878.355 460.828 831.451 261.188 657.923 201.619C522.233 155.015 320.372 198.835 232.977 378.111C147.307 553.829 213.71 752.463 355.531 821.88C512.419 898.668 724.996 801.722 780.477 645.388C822.9 525.836 765.332 394.453 697.796 327.718C682.058 312.149 658.516 289.414 620.188 276.68C529.084 246.444 375.467 279.928 313.237 417.265C261.026 532.538 292.425 678.485 399.859 730.94C524.036 791.566 663.925 685.341 700.217 606.207C719.947 563.135 721.827 518.18 721.827 518.18C722.368 505.447 723.45 470.932 708.794 436.056C681.543 371.177 619.158 351.123 605.198 347.127C534.725 326.944 416.782 348.416 374.127 446.986C342.703 519.624 356.406 624.354 433.498 661.988C520.146 704.287 612.384 630.179 639.378 576.487C650.067 555.221 655.064 529.574 655.064 529.574C657.408 515.757 665.264 476.448 649.835 443.196C626.396 392.674 564.707 388.267 551.571 387.751C544.384 387.468 447.201 385.38 412.48 465.725C389.659 518.515 400.271 592.004 454.697 618.554C514.84 647.914 579.775 598.835 601.051 557.773C608.34 543.725 611.276 529.11 612.255 524.083C614.548 512.381 622.146 472.195 600.432 444.743C581.089 420.255 549.999 420.616 538.383 420.745C528.827 420.848 462.785 423.013 439.268 478.794C423.504 516.144 430.382 569.115 469.482 588.215C512.239 609.094 558.499 574.708 574.263 544.704C579.672 534.42 581.578 524.496 582.299 520.578C586.06 500.188 584.205 471.19 568.777 455.956C542.221 429.741 477.466 446.238 460.569 489.182C451.194 512.999 454.233 550.865 481.253 564.088C506.778 576.59 539.696 560.299 552.987 534.291C563.393 513.901 564.269 482.609 546.728 470.416C535.858 462.864 517.287 467.22 515.536 467.633C509.612 468.973 505.284 471.061 503.842 471.783C501.936 472.736 492.612 477.582 483.957 488.563C482 491.063 479.578 494.131 477.93 497.636C471.851 510.525 472.882 535.605 490.834 544.395C507.113 552.36 528.415 542.617 535.601 525.81C540.804 513.644 539.207 496.373 528.234 489.156C521.357 484.619 509.663 483.305 501.112 491.244C494.028 497.817 489.392 510.473 494.492 518.696C500.468 528.336 516.798 527.022 520.662 520.526C524.448 514.211 517.622 501.374 513.424 501.658C510.59 501.864 508.633 508.128 507.397 514.056C506.289 512.896 505.207 511.736 504.1 510.576C505.13 507.071 508.427 496.941 513.553 496.605C520.172 496.167 529.496 512.2 524.963 521.196C520.172 530.656 500.03 532.28 491.272 523.181C482.18 513.747 486.816 494.26 498.69 485.109C509.097 477.118 524.01 477.84 533.721 484.748C547.758 494.724 547.424 515.01 542.298 527.331C534.39 546.354 509.251 560.299 488.104 550.195C465.36 539.317 464.382 508.772 471.671 493.667C474.092 488.666 477.801 484.516 481.124 480.83C484.704 476.835 492.406 468.432 505.207 462.58C508.169 461.24 513.604 458.791 520.971 457.631C531.609 455.956 546.058 456.987 555.202 462.967C574.005 475.314 575.705 512.355 562.466 537.178C547.707 564.862 509.431 586.669 479.141 571.796C448.154 556.562 444.11 512.071 455.109 484.774C474.582 436.469 550.618 418.631 580.831 446.187C605.352 468.561 597.033 518.49 596.543 521.248C595.745 525.733 593.581 537.332 587.219 549.267C568.158 584.993 512.136 622.498 465.515 599.815C420.748 578.033 413.279 514.726 430.408 472.711C451.477 421.054 508.478 404.583 545.543 405.279C557.83 405.511 594.869 406.233 617.613 433.169C642.984 463.173 634.767 506.993 631.341 525.346C630.363 530.605 626.988 547.952 618.308 564.475C592.705 613.193 514.3 667.169 448.309 635.077C385.976 604.764 374.385 516.969 399.292 457.528C428.089 388.808 503.79 362.516 560.869 366.975C567.308 367.465 647.8 374.863 675.026 431.391C693.752 470.262 682.831 523.233 681.105 531.739C679.276 540.58 676.649 549.731 676.649 549.731C676.649 549.731 671.059 569.115 662.894 586.23C652.36 608.295 535.601 739.781 423.736 685.547C335.826 642.913 319.29 518.747 354.784 435.799C399.936 330.244 529.934 290.11 623.202 319.778C632.81 322.846 710.494 348.854 743.541 423.065C760.695 461.575 759.382 498.59 758.686 518.49C758.686 518.49 756.806 571.383 733.599 620.745C691.743 709.777 528.981 836.031 384.688 765.635C254.278 702.019 229.654 521.995 284.079 401.258C347.752 259.951 521.022 196.721 640.64 237.938C684.453 253.043 711.885 278.974 730.791 297.224C817.104 380.559 873.23 531.275 826.841 666.267C763.323 851.136 522.181 963.805 333.199 871.267C143.418 778.343 106.842 527.743 190.837 355.737C279.417 174.321 500.957 82.6343 684.479 150.736C884.305 224.869 940.534 451.857 933.837 594.866C926.779 745.761 847.369 851.548 813.988 891.347C799.1 873.948 784.263 856.549 769.427 839.176Z" fill="black" stroke="black" stroke-miterlimit="10"/>
<path d="M465.206 7.7793L555.769 1026" stroke="#FFF735" stroke-width="2" stroke-miterlimit="10"/>
<path d="M559.014 8.08887L461.986 1025.69" stroke="#FFF735" stroke-width="2" stroke-miterlimit="10"/>
<path d="M559.633 1L462.631 1018.63" stroke="#FFF735" stroke-width="2" stroke-miterlimit="10"/>
<path d="M655.682 26.8535L365.318 1006.93" stroke="#FFF735" stroke-width="2" stroke-miterlimit="10"/>
<path d="M765.872 74.2568L255.127 959.526" stroke="#FFF735" stroke-width="2" stroke-miterlimit="10"/>
<path d="M860.222 144.395L160.778 889.388" stroke="#FFF735" stroke-width="2" stroke-miterlimit="10"/>
<path d="M938.988 238.763L82.0112 795.02" stroke="#FFF735" stroke-width="2" stroke-miterlimit="10"/>
<path d="M987.051 333.079L33.9224 700.704" stroke="#FFF735" stroke-width="2" stroke-miterlimit="10"/>
<path d="M1016.39 446.65L4.61084 587.133" stroke="#FFF735" stroke-width="2" stroke-miterlimit="10"/>
<path d="M1020.25 548.339L0.72168 485.444" stroke="#FFF735" stroke-width="2" stroke-miterlimit="10"/>
<path d="M1006.86 637.242L14.1162 396.541" stroke="#FFF735" stroke-width="2" stroke-miterlimit="10"/>
<path d="M977.083 724.779L43.916 309.004" stroke="#FFF735" stroke-width="2" stroke-miterlimit="10"/>
<path d="M933.244 803.681L87.7295 230.102" stroke="#FFF735" stroke-width="2" stroke-miterlimit="10"/>
<path d="M864.215 885.574L156.76 148.21" stroke="#FFF735" stroke-width="2" stroke-miterlimit="10"/>
<path d="M785.319 947.721L235.681 86.0625" stroke="#FFF735" stroke-width="2" stroke-miterlimit="10"/>
<path d="M673.789 1001.18L347.21 32.6021" stroke="#FFF735" stroke-width="2" stroke-miterlimit="10"/>
</svg>
