<svg width="1023" height="900" viewBox="0 0 1023 900" fill="none" xmlns="http://www.w3.org/2000/svg">
<path d="M770.427 775.176C799.147 740.919 867.507 649.85 873.586 519.937C879.355 396.828 832.451 197.189 658.923 137.619C523.233 91.015 321.372 134.835 233.977 314.111C148.307 489.83 214.71 688.464 356.531 757.88C513.419 834.668 725.996 737.723 781.477 581.388C823.9 461.836 766.332 330.453 698.796 263.718C683.058 248.149 659.516 225.414 621.188 212.68C530.084 182.444 376.467 215.928 314.237 353.266C262.026 468.538 293.425 614.485 400.859 666.94C525.036 727.567 664.925 621.341 701.217 542.207C720.947 499.135 722.827 454.181 722.827 454.181C723.368 441.447 724.45 406.932 709.794 372.057C682.543 307.177 620.158 287.123 606.198 283.128C535.725 262.945 417.782 284.416 375.127 382.986C343.703 455.624 357.406 560.354 434.498 597.988C521.146 640.287 613.384 566.18 640.378 512.487C651.067 491.222 656.064 465.574 656.064 465.574C658.408 451.758 666.264 412.448 650.835 379.197C627.396 328.675 565.707 324.267 552.571 323.751C545.384 323.468 448.201 321.38 413.48 401.725C390.659 454.516 401.271 528.005 455.697 554.554C515.84 583.914 580.775 534.835 602.051 493.773C609.34 479.725 612.276 465.11 613.255 460.083C615.548 448.381 623.146 408.195 601.432 380.743C582.089 356.256 550.999 356.616 539.383 356.745C529.827 356.848 463.785 359.014 440.268 414.794C424.504 452.144 431.382 505.115 470.482 524.215C513.239 545.094 559.499 510.709 575.263 480.705C580.672 470.42 582.578 460.496 583.299 456.578C587.06 436.189 585.205 407.19 569.777 391.956C543.221 365.741 478.466 382.238 461.569 425.182C452.194 449 455.233 486.865 482.253 500.089C507.778 512.59 540.696 496.299 553.987 470.291C564.393 449.902 565.269 418.609 547.728 406.417C536.858 398.864 518.287 403.22 516.536 403.633C510.612 404.973 506.284 407.061 504.842 407.783C502.936 408.737 493.612 413.583 484.957 424.563C483 427.064 480.578 430.131 478.93 433.637C472.851 446.525 473.882 471.606 491.834 480.395C508.113 488.36 529.415 478.617 536.601 461.81C541.804 449.644 540.207 432.374 529.234 425.156C522.357 420.62 510.663 419.305 502.112 427.244C495.028 433.817 490.392 446.473 495.492 454.696C501.468 464.337 517.798 463.022 521.662 456.526C525.448 450.211 518.622 437.374 514.424 437.658C511.59 437.864 509.633 444.128 508.397 450.056C507.289 448.896 506.207 447.736 505.1 446.577C506.13 443.071 509.427 432.941 514.553 432.606C521.172 432.167 530.496 448.2 525.963 457.196C521.172 466.656 501.03 468.28 492.272 459.181C483.18 449.747 487.816 430.26 499.69 421.109C510.097 413.119 525.01 413.84 534.721 420.748C548.758 430.724 548.424 451.01 543.298 463.331C535.39 482.354 510.251 496.299 489.104 486.195C466.36 475.317 465.382 444.772 472.671 429.667C475.092 424.666 478.801 420.516 482.124 416.83C485.704 412.835 493.406 404.432 506.207 398.581C509.169 397.24 514.604 394.792 521.971 393.632C532.609 391.956 547.058 392.987 556.202 398.967C575.005 411.314 576.705 448.355 563.466 473.178C548.707 500.862 510.431 522.669 480.141 507.796C449.154 492.562 445.11 448.072 456.109 420.774C475.582 372.469 551.618 354.632 581.831 382.187C606.352 404.561 598.033 454.49 597.543 457.248C596.745 461.733 594.581 473.333 588.219 485.267C569.158 520.993 513.136 558.498 466.515 535.815C421.748 514.034 414.279 450.727 431.408 408.711C452.477 357.055 509.478 340.583 546.543 341.279C558.83 341.511 595.869 342.233 618.613 369.17C643.984 399.174 635.767 442.994 632.341 461.346C631.363 466.605 627.988 483.953 619.308 500.475C593.705 549.193 515.3 603.169 449.309 571.077C386.976 540.764 375.385 452.969 400.292 393.528C429.089 324.808 504.79 298.516 561.869 302.975C568.308 303.465 648.8 310.863 676.026 367.391C694.752 406.262 683.831 459.233 682.105 467.739C680.276 476.58 677.649 485.731 677.649 485.731C677.649 485.731 672.059 505.115 663.894 522.231C653.36 544.295 536.601 675.781 424.736 621.548C336.826 578.913 320.29 454.748 355.784 371.799C400.936 266.244 530.934 226.11 624.202 255.779C633.81 258.846 711.494 284.855 744.541 359.065C761.695 397.575 760.382 434.59 759.686 454.49C759.686 454.49 757.806 507.383 734.599 556.745C692.743 645.778 529.981 772.031 385.688 701.635C255.278 638.019 230.654 457.996 285.079 337.258C348.752 195.951 522.022 132.721 641.64 173.938C685.453 189.043 712.885 214.974 731.791 233.224C818.104 316.56 874.23 467.275 827.841 602.267C764.323 787.136 523.181 899.805 334.199 807.268C144.418 714.343 107.842 463.744 191.837 291.737C280.417 110.322 501.957 18.6345 685.479 86.7361C885.305 160.869 941.534 387.858 934.837 530.866C927.779 681.762 848.369 787.549 814.988 827.348C800.1 809.948 785.263 792.549 770.427 775.176Z" fill="black" stroke="black" stroke-miterlimit="10"/>
<path d="M410.621 -48.1528L612.354 953.936" stroke="#FFF735" stroke-width="2" stroke-miterlimit="10"/>
<path d="M466.206 -56.2207L556.769 962.004" stroke="#FFF735" stroke-width="2" stroke-miterlimit="10"/>
<path d="M518.159 -58.1797L504.843 963.963" stroke="#FFF735" stroke-width="2" stroke-miterlimit="10"/>
<path d="M560.015 -55.9111L462.986 961.695" stroke="#FFF735" stroke-width="2" stroke-miterlimit="10"/>
<path d="M560.633 -63L463.631 954.632" stroke="#FFF735" stroke-width="2" stroke-miterlimit="10"/>
<path d="M610.499 -48.5391L412.476 954.323" stroke="#FFF735" stroke-width="2" stroke-miterlimit="10"/>
<path d="M656.682 -37.1465L366.318 942.929" stroke="#FFF735" stroke-width="2" stroke-miterlimit="10"/>
<path d="M709.743 -18.1489L313.232 923.932" stroke="#FFF735" stroke-width="2" stroke-miterlimit="10"/>
<path d="M766.873 10.2568L256.128 895.526" stroke="#FFF735" stroke-width="2" stroke-miterlimit="10"/>
<path d="M817.358 43.5601L205.618 862.223" stroke="#FFF735" stroke-width="2" stroke-miterlimit="10"/>
<path d="M861.221 80.3948L161.777 825.388" stroke="#FFF735" stroke-width="2" stroke-miterlimit="10"/>
<path d="M900.708 121.921L122.292 783.862" stroke="#FFF735" stroke-width="2" stroke-miterlimit="10"/>
<path d="M939.987 174.763L83.0107 731.02" stroke="#FFF735" stroke-width="2" stroke-miterlimit="10"/>
<path d="M968.347 224.383L54.6523 681.401" stroke="#FFF735" stroke-width="2" stroke-miterlimit="10"/>
<path d="M988.051 269.079L34.9219 636.704" stroke="#FFF735" stroke-width="2" stroke-miterlimit="10"/>
<path d="M1006.11 325.504L16.8662 580.279" stroke="#FFF735" stroke-width="2" stroke-miterlimit="10"/>
<path d="M1017.39 382.65L5.61133 523.132" stroke="#FFF735" stroke-width="2" stroke-miterlimit="10"/>
<path d="M1022 437.091L1 468.693" stroke="#FFF735" stroke-width="2" stroke-miterlimit="10"/>
<path d="M1021.25 484.339L1.72168 421.444" stroke="#FFF735" stroke-width="2" stroke-miterlimit="10"/>
<path d="M1016.95 526.226L6.04785 379.557" stroke="#FFF735" stroke-width="2" stroke-miterlimit="10"/>
<path d="M1007.86 573.242L15.1162 332.541" stroke="#FFF735" stroke-width="2" stroke-miterlimit="10"/>
<path d="M994.569 618.867L28.4326 286.917" stroke="#FFF735" stroke-width="2" stroke-miterlimit="10"/>
<path d="M978.083 660.779L44.916 245.004" stroke="#FFF735" stroke-width="2" stroke-miterlimit="10"/>
<path d="M959.101 699.057L63.9004 206.726" stroke="#FFF735" stroke-width="2" stroke-miterlimit="10"/>
<path d="M934.244 739.681L88.7295 166.102" stroke="#FFF735" stroke-width="2" stroke-miterlimit="10"/>
<path d="M904.031 779.893L118.97 125.89" stroke="#FFF735" stroke-width="2" stroke-miterlimit="10"/>
<path d="M865.214 821.574L157.76 84.21" stroke="#FFF735" stroke-width="2" stroke-miterlimit="10"/>
<path d="M826.99 854.851L196.01 50.9324" stroke="#FFF735" stroke-width="2" stroke-miterlimit="10"/>
<path d="M786.319 883.721L236.681 22.0625" stroke="#FFF735" stroke-width="2" stroke-miterlimit="10"/>
<path d="M727.257 916.173L295.742 -10.3901" stroke="#FFF735" stroke-width="2" stroke-miterlimit="10"/>
<path d="M674.79 937.181L348.211 -31.3979" stroke="#FFF735" stroke-width="2" stroke-miterlimit="10"/>
</svg>
