<svg width="1440" height="900" viewBox="0 0 1440 900" fill="none" xmlns="http://www.w3.org/2000/svg">
<g clip-path="url(#clip0)">
<rect width="1440" height="900" fill="#0500FF"/>
<rect x="31" width="32" height="919" fill="white"/>
<rect x="97" width="32" height="919" fill="white"/>
<rect x="163" width="32" height="919" fill="white"/>
<rect x="229" width="32" height="919" fill="white"/>
<rect x="295" width="32" height="919" fill="white"/>
<rect x="361" width="32" height="919" fill="white"/>
<rect x="427" width="32" height="919" fill="white"/>
<rect x="493" width="32" height="919" fill="white"/>
<rect x="559" width="32" height="919" fill="white"/>
<rect x="625" width="32" height="919" fill="white"/>
<rect x="691" width="32" height="919" fill="white"/>
<rect x="757" width="32" height="919" fill="white"/>
<rect x="823" width="32" height="919" fill="white"/>
<rect x="889" width="32" height="919" fill="white"/>
<rect x="955" width="32" height="919" fill="white"/>
<rect x="1021" width="32" height="919" fill="white"/>
<rect x="1087" width="32" height="919" fill="white"/>
<rect x="1153" width="32" height="919" fill="white"/>
<rect x="1219" width="32" height="919" fill="white"/>
<rect x="1285" width="32" height="919" fill="white"/>
<rect x="1351" width="32" height="919" fill="white"/>
<rect x="1417" width="32" height="919" fill="white"/>
</g>
<defs>
<clipPath id="clip0">
<rect width="1440" height="900" fill="white"/>
</clipPath>
</defs>
</svg>
