<svg width="220" height="145" viewBox="0 0 220 145" fill="none" xmlns="http://www.w3.org/2000/svg">
<g clip-path="url(#clip0)">
<path d="M121 94H99V138H121V94Z" fill="white"/>
<path d="M220 0H0V112.495H220V0Z" fill="white"/>
<path d="M211.146 8.17969H8.85352V104.309H211.146V8.17969Z" fill="black"/>
<path d="M189.691 145H30.3096C35.3243 141.872 42.0475 138.355 50.4011 135.676C56.2473 133.803 61.6064 132.743 66.1794 132.145C80.6066 131.794 95.3261 131.599 110.338 131.586C123.68 131.573 136.795 131.703 149.67 131.956C154.958 132.503 161.285 133.582 168.229 135.676C177.076 138.342 184.267 141.846 189.691 145Z" fill="white"/>
<path d="M30.309 15.3779H19.2207V56.2445H30.309V15.3779Z" fill="white"/>
<path d="M30.309 84.165H19.2207V95.2644H30.309V84.165Z" fill="white"/>
<path d="M30.309 64.6582H19.2207V75.7575H30.309V64.6582Z" fill="white"/>
<rect x="9" y="8" width="202" height="96" fill="black"/>
<rect x="9" y="8" width="25" height="96" fill="white"/>
<rect x="34" y="8" width="26" height="96" fill="#FFF735"/>
<rect x="85" y="8" width="25" height="96" fill="#00FF19"/>
<rect x="110" y="8" width="25" height="96" fill="#BD00FF"/>
<rect x="135" y="8" width="26" height="96" fill="#FF0000"/>
<rect x="161.001" y="8" width="25" height="96" fill="#0500FF"/>
<rect x="60.001" y="8" width="25" height="96" fill="#00FFF0"/>
<rect x="211" y="64" width="19" height="202" transform="rotate(90 211 64)" fill="black"/>
<path d="M65.1387 75.1818H63V69.4545H65.1387V71.9091H68.3466V69.4545H70.4853V75.1818H68.3466V72.7273H65.1387V75.1818Z" fill="#EBFF00"/>
<path d="M79.0441 72.7273H74.7668V74.3636H80.1134V75.1818H72.6281V69.4545H80.1134V70.2727H74.7668V71.9091H79.0441V72.7273Z" fill="#EBFF00"/>
<path d="M92.937 75.1818H87.5904V76H85.4517V74.3636H86.521V73.5455H87.5904V69.4545H94.0063V74.3636H95.0757V76H92.937V75.1818ZM88.6597 74.3636H91.8677V70.2727H89.729V73.5455H88.6597V74.3636Z" fill="#EBFF00"/>
<path d="M99.3488 69.4545V71.9091H102.557V69.4545H104.695V74.3636H103.626V75.1818H98.2795V74.3636H97.2102V73.5455H99.3488V74.3636H102.557V72.7273H98.2795V71.9091H97.2102V69.4545H99.3488Z" fill="#EBFF00"/>
<path d="M108.977 75.1818H106.838V69.4545H108.977V70.2727H110.046V71.0909H111.116V70.2727H112.185V69.4545H114.324V75.1818H112.185V72.7273H111.116V73.5455H110.046V72.7273H108.977V75.1818Z" fill="#EBFF00"/>
<path d="M121.813 73.5455H118.605V75.1818H116.466V71.0909H117.536V70.2727H118.605V69.4545H121.813V70.2727H122.882V71.0909H123.952V75.1818H121.813V73.5455ZM118.605 72.7273H121.813V71.0909H120.744V70.2727H119.674V71.0909H118.605V72.7273Z" fill="#EBFF00"/>
<path d="M130.372 67H132.511V67.8182H131.441V68.6364H127.164V67.8182H126.095V67H128.233V67.8182H130.372V67ZM128.233 71.9091V69.4545H126.095V75.1818H128.233V74.3636H129.303V73.5455H130.372V72.7273H131.441V75.1818H133.58V69.4545H131.441V70.2727H130.372V71.0909H129.303V71.9091H128.233Z" fill="#EBFF00"/>
<path d="M135.723 70.2727H136.792V69.4545H138.931V70.2727H140V71.9091H138.931V73.5455H136.792V71.9091H135.723V70.2727ZM136.792 74.3636H138.931V75.1818H136.792V74.3636Z" fill="#EBFF00"/>
<path d="M67.1387 77.1818H65V71.4545H67.1387V73.9091H70.3466V71.4545H72.4853V77.1818H70.3466V74.7273H67.1387V77.1818Z" fill="#0500FF"/>
<path d="M81.0441 74.7273H76.7668V76.3636H82.1134V77.1818H74.6281V71.4545H82.1134V72.2727H76.7668V73.9091H81.0441V74.7273Z" fill="#0500FF"/>
<path d="M94.937 77.1818H89.5904V78H87.4517V76.3636H88.521V75.5455H89.5904V71.4545H96.0063V76.3636H97.0757V78H94.937V77.1818ZM90.6597 76.3636H93.8677V72.2727H91.729V75.5455H90.6597V76.3636Z" fill="#0500FF"/>
<path d="M101.349 71.4545V73.9091H104.557V71.4545H106.695V76.3636H105.626V77.1818H100.279V76.3636H99.2102V75.5455H101.349V76.3636H104.557V74.7273H100.279V73.9091H99.2102V71.4545H101.349Z" fill="#0500FF"/>
<path d="M110.977 77.1818H108.838V71.4545H110.977V72.2727H112.046V73.0909H113.116V72.2727H114.185V71.4545H116.324V77.1818H114.185V74.7273H113.116V75.5455H112.046V74.7273H110.977V77.1818Z" fill="#0500FF"/>
<path d="M123.813 75.5455H120.605V77.1818H118.466V73.0909H119.536V72.2727H120.605V71.4545H123.813V72.2727H124.882V73.0909H125.952V77.1818H123.813V75.5455ZM120.605 74.7273H123.813V73.0909H122.744V72.2727H121.674V73.0909H120.605V74.7273Z" fill="#0500FF"/>
<path d="M132.372 69H134.511V69.8182H133.441V70.6364H129.164V69.8182H128.095V69H130.233V69.8182H132.372V69ZM130.233 73.9091V71.4545H128.095V77.1818H130.233V76.3636H131.303V75.5455H132.372V74.7273H133.441V77.1818H135.58V71.4545H133.441V72.2727H132.372V73.0909H131.303V73.9091H130.233Z" fill="#0500FF"/>
<path d="M137.723 72.2727H138.792V71.4545H140.931V72.2727H142V73.9091H140.931V75.5455H138.792V73.9091H137.723V72.2727ZM138.792 76.3636H140.931V77.1818H138.792V76.3636Z" fill="#0500FF"/>
<path d="M69.1387 75.1818H67V69.4545H69.1387V71.9091H72.3466V69.4545H74.4853V75.1818H72.3466V72.7273H69.1387V75.1818Z" fill="#FF0000"/>
<path d="M83.0441 72.7273H78.7668V74.3636H84.1134V75.1818H76.6281V69.4545H84.1134V70.2727H78.7668V71.9091H83.0441V72.7273Z" fill="#FF0000"/>
<path d="M96.937 75.1818H91.5904V76H89.4517V74.3636H90.521V73.5455H91.5904V69.4545H98.0063V74.3636H99.0757V76H96.937V75.1818ZM92.6597 74.3636H95.8677V70.2727H93.729V73.5455H92.6597V74.3636Z" fill="#FF0000"/>
<path d="M103.349 69.4545V71.9091H106.557V69.4545H108.695V74.3636H107.626V75.1818H102.279V74.3636H101.21V73.5455H103.349V74.3636H106.557V72.7273H102.279V71.9091H101.21V69.4545H103.349Z" fill="#FF0000"/>
<path d="M112.977 75.1818H110.838V69.4545H112.977V70.2727H114.046V71.0909H115.116V70.2727H116.185V69.4545H118.324V75.1818H116.185V72.7273H115.116V73.5455H114.046V72.7273H112.977V75.1818Z" fill="#FF0000"/>
<path d="M125.813 73.5455H122.605V75.1818H120.466V71.0909H121.536V70.2727H122.605V69.4545H125.813V70.2727H126.882V71.0909H127.952V75.1818H125.813V73.5455ZM122.605 72.7273H125.813V71.0909H124.744V70.2727H123.674V71.0909H122.605V72.7273Z" fill="#FF0000"/>
<path d="M134.372 67H136.511V67.8182H135.441V68.6364H131.164V67.8182H130.095V67H132.233V67.8182H134.372V67ZM132.233 71.9091V69.4545H130.095V75.1818H132.233V74.3636H133.303V73.5455H134.372V72.7273H135.441V75.1818H137.58V69.4545H135.441V70.2727H134.372V71.0909H133.303V71.9091H132.233Z" fill="#FF0000"/>
<path d="M139.723 70.2727H140.792V69.4545H142.931V70.2727H144V71.9091H142.931V73.5455H140.792V71.9091H139.723V70.2727ZM140.792 74.3636H142.931V75.1818H140.792V74.3636Z" fill="#FF0000"/>
<path d="M67.1387 76.0909H65V69.7273H67.1387V72.4545H70.3466V69.7273H72.4853V76.0909H70.3466V73.3636H67.1387V76.0909Z" fill="white"/>
<path d="M81.0441 73.3636H76.7668V75.1818H82.1134V76.0909H74.6281V69.7273H82.1134V70.6364H76.7668V72.4545H81.0441V73.3636Z" fill="white"/>
<path d="M94.937 76.0909H89.5904V77H87.4517V75.1818H88.521V74.2727H89.5904V69.7273H96.0063V75.1818H97.0757V77H94.937V76.0909ZM90.6597 75.1818H93.8677V70.6364H91.729V74.2727H90.6597V75.1818Z" fill="white"/>
<path d="M101.349 69.7273V72.4545H104.557V69.7273H106.695V75.1818H105.626V76.0909H100.279V75.1818H99.2102V74.2727H101.349V75.1818H104.557V73.3636H100.279V72.4545H99.2102V69.7273H101.349Z" fill="white"/>
<path d="M110.977 76.0909H108.838V69.7273H110.977V70.6364H112.046V71.5455H113.116V70.6364H114.185V69.7273H116.324V76.0909H114.185V73.3636H113.116V74.2727H112.046V73.3636H110.977V76.0909Z" fill="white"/>
<path d="M123.813 74.2727H120.605V76.0909H118.466V71.5455H119.536V70.6364H120.605V69.7273H123.813V70.6364H124.882V71.5455H125.952V76.0909H123.813V74.2727ZM120.605 73.3636H123.813V71.5455H122.744V70.6364H121.674V71.5455H120.605V73.3636Z" fill="white"/>
<path d="M132.372 67H134.511V67.9091H133.441V68.8182H129.164V67.9091H128.095V67H130.233V67.9091H132.372V67ZM130.233 72.4545V69.7273H128.095V76.0909H130.233V75.1818H131.303V74.2727H132.372V73.3636H133.441V76.0909H135.58V69.7273H133.441V70.6364H132.372V71.5455H131.303V72.4545H130.233Z" fill="white"/>
<path d="M137.723 70.6364H138.792V69.7273H140.931V70.6364H142V72.4545H140.931V74.2727H138.792V72.4545H137.723V70.6364ZM138.792 75.1818H140.931V76.0909H138.792V75.1818Z" fill="white"/>
</g>
<defs>
<clipPath id="clip0">
<rect width="220" height="145" fill="white"/>
</clipPath>
</defs>
</svg>
