<svg width="220" height="145" viewBox="0 0 220 145" fill="none" xmlns="http://www.w3.org/2000/svg">
<g clip-path="url(#clip0)">
<path d="M121 94H99V138H121V94Z" fill="white"/>
<path d="M220 0H0V112.495H220V0Z" fill="white"/>
<path d="M211.146 8.17969H8.85352V104.309H211.146V8.17969Z" fill="black"/>
<path d="M189.691 145H30.3096C35.3243 141.872 42.0475 138.355 50.4011 135.676C56.2473 133.803 61.6064 132.743 66.1794 132.145C80.6066 131.794 95.3261 131.599 110.338 131.586C123.68 131.573 136.795 131.703 149.67 131.956C154.958 132.503 161.285 133.582 168.229 135.676C177.076 138.342 184.267 141.846 189.691 145Z" fill="white"/>
<path d="M30.309 15.3779H19.2207V56.2445H30.309V15.3779Z" fill="white"/>
<path d="M30.309 84.165H19.2207V95.2644H30.309V84.165Z" fill="white"/>
<path d="M30.309 64.6582H19.2207V75.7575H30.309V64.6582Z" fill="white"/>
<rect x="16" y="15" width="187" height="83" fill="black"/>
<rect x="16" y="15" width="23.1436" height="83" fill="white"/>
<rect x="39.1436" y="15" width="24.0693" height="83" fill="#FFF735"/>
<rect x="86.3564" y="15" width="23.1436" height="83" fill="#00FF19"/>
<rect x="109.5" y="15" width="23.1436" height="83" fill="#BD00FF"/>
<rect x="132.644" y="15" width="24.0693" height="83" fill="#FF0000"/>
<rect x="156.714" y="15" width="23.1436" height="83" fill="#0500FF"/>
<rect x="63.2139" y="15" width="23.1436" height="83" fill="#00FFF0"/>
<rect x="203" y="63.417" width="16.4271" height="187" transform="rotate(90 203 63.417)" fill="black"/>
<path d="M67.9701 73.0846H65.9902V68.1329H67.9701V70.2551H70.9398V68.1329H72.9197V73.0846H70.9398V70.9624H67.9701V73.0846Z" fill="#EBFF00"/>
<path d="M80.8429 70.9624H76.8833V72.3772H81.8329V73.0846H74.9034V68.1329H81.8329V68.8403H76.8833V70.2551H80.8429V70.9624Z" fill="#EBFF00"/>
<path d="M93.7042 73.0846H88.7546V73.792H86.7747V72.3772H87.7647V71.6698H88.7546V68.1329H94.6941V72.3772H95.684V73.792H93.7042V73.0846ZM89.7445 72.3772H92.7143V68.8403H90.7344V71.6698H89.7445V72.3772Z" fill="#EBFF00"/>
<path d="M99.6399 68.1329V70.2551H102.61V68.1329H104.589V72.3772H103.6V73.0846H98.65V72.3772H97.66V71.6698H99.6399V72.3772H102.61V70.9624H98.65V70.2551H97.66V68.1329H99.6399Z" fill="#EBFF00"/>
<path d="M108.553 73.0846H106.573V68.1329H108.553V68.8403H109.543V69.5477H110.533V68.8403H111.523V68.1329H113.503V73.0846H111.523V70.9624H110.533V71.6698H109.543V70.9624H108.553V73.0846Z" fill="#EBFF00"/>
<path d="M120.436 71.6698H117.466V73.0846H115.486V69.5477H116.476V68.8403H117.466V68.1329H120.436V68.8403H121.426V69.5477H122.416V73.0846H120.436V71.6698ZM117.466 70.9624H120.436V69.5477H119.446V68.8403H118.456V69.5477H117.466V70.9624Z" fill="#EBFF00"/>
<path d="M128.359 66.0107H130.339V66.7181H129.349V67.4255H125.389V66.7181H124.4V66.0107H126.379V66.7181H128.359V66.0107ZM126.379 70.2551V68.1329H124.4V73.0846H126.379V72.3772H127.369V71.6698H128.359V70.9624H129.349V73.0846H131.329V68.1329H129.349V68.8403H128.359V69.5477H127.369V70.2551H126.379Z" fill="#EBFF00"/>
<path d="M133.313 68.8403H134.303V68.1329H136.282V68.8403H137.272V70.2551H136.282V71.6698H134.303V70.2551H133.313V68.8403ZM134.303 72.3772H136.282V73.0846H134.303V72.3772Z" fill="#EBFF00"/>
<path d="M69.8216 74.8131H67.8418V69.8614H69.8216V71.9836H72.7914V69.8614H74.7713V74.8131H72.7914V72.691H69.8216V74.8131Z" fill="#0500FF"/>
<path d="M82.6945 72.691H78.7348V74.1057H83.6844V74.8131H76.755V69.8614H83.6844V70.5688H78.7348V71.9836H82.6945V72.691Z" fill="#0500FF"/>
<path d="M95.5558 74.8131H90.6062V75.5205H88.6263V74.1057H89.6162V73.3983H90.6062V69.8614H96.5457V74.1057H97.5356V75.5205H95.5558V74.8131ZM91.5961 74.1057H94.5658V70.5688H92.586V73.3983H91.5961V74.1057Z" fill="#0500FF"/>
<path d="M101.491 69.8614V71.9836H104.461V69.8614H106.441V74.1057H105.451V74.8131H100.502V74.1057H99.5116V73.3983H101.491V74.1057H104.461V72.691H100.502V71.9836H99.5116V69.8614H101.491Z" fill="#0500FF"/>
<path d="M110.405 74.8131H108.425V69.8614H110.405V70.5688H111.395V71.2762H112.384V70.5688H113.374V69.8614H115.354V74.8131H113.374V72.691H112.384V73.3983H111.395V72.691H110.405V74.8131Z" fill="#0500FF"/>
<path d="M122.288 73.3983H119.318V74.8131H117.338V71.2762H118.328V70.5688H119.318V69.8614H122.288V70.5688H123.277V71.2762H124.267V74.8131H122.288V73.3983ZM119.318 72.691H122.288V71.2762H121.298V70.5688H120.308V71.2762H119.318V72.691Z" fill="#0500FF"/>
<path d="M130.211 67.7393H132.191V68.4466H131.201V69.154H127.241V68.4466H126.251V67.7393H128.231V68.4466H130.211V67.7393ZM128.231 71.9836V69.8614H126.251V74.8131H128.231V74.1057H129.221V73.3983H130.211V72.691H131.201V74.8131H133.181V69.8614H131.201V70.5688H130.211V71.2762H129.221V71.9836H128.231Z" fill="#0500FF"/>
<path d="M135.164 70.5688H136.154V69.8614H138.134V70.5688H139.124V71.9836H138.134V73.3983H136.154V71.9836H135.164V70.5688ZM136.154 74.1057H138.134V74.8131H136.154V74.1057Z" fill="#0500FF"/>
<path d="M71.6732 73.0846H69.6934V68.1329H71.6732V70.2551H74.643V68.1329H76.6228V73.0846H74.643V70.9624H71.6732V73.0846Z" fill="#FF0000"/>
<path d="M84.5461 70.9624H80.5864V72.3772H85.536V73.0846H78.6065V68.1329H85.536V68.8403H80.5864V70.2551H84.5461V70.9624Z" fill="#FF0000"/>
<path d="M97.4073 73.0846H92.4577V73.792H90.4779V72.3772H91.4678V71.6698H92.4577V68.1329H98.3973V72.3772H99.3872V73.792H97.4073V73.0846ZM93.4476 72.3772H96.4174V68.8403H94.4376V71.6698H93.4476V72.3772Z" fill="#FF0000"/>
<path d="M103.343 68.1329V70.2551H106.313V68.1329H108.293V72.3772H107.303V73.0846H102.353V72.3772H101.363V71.6698H103.343V72.3772H106.313V70.9624H102.353V70.2551H101.363V68.1329H103.343Z" fill="#FF0000"/>
<path d="M112.256 73.0846H110.276V68.1329H112.256V68.8403H113.246V69.5477H114.236V68.8403H115.226V68.1329H117.206V73.0846H115.226V70.9624H114.236V71.6698H113.246V70.9624H112.256V73.0846Z" fill="#FF0000"/>
<path d="M124.139 71.6698H121.169V73.0846H119.189V69.5477H120.179V68.8403H121.169V68.1329H124.139V68.8403H125.129V69.5477H126.119V73.0846H124.139V71.6698ZM121.169 70.9624H124.139V69.5477H123.149V68.8403H122.159V69.5477H121.169V70.9624Z" fill="#FF0000"/>
<path d="M132.062 66.0107H134.042V66.7181H133.052V67.4255H129.093V66.7181H128.103V66.0107H130.083V66.7181H132.062V66.0107ZM130.083 70.2551V68.1329H128.103V73.0846H130.083V72.3772H131.072V71.6698H132.062V70.9624H133.052V73.0846H135.032V68.1329H133.052V68.8403H132.062V69.5477H131.072V70.2551H130.083Z" fill="#FF0000"/>
<path d="M137.016 68.8403H138.006V68.1329H139.986V68.8403H140.976V70.2551H139.986V71.6698H138.006V70.2551H137.016V68.8403ZM138.006 72.3772H139.986V73.0846H138.006V72.3772Z" fill="#FF0000"/>
<path d="M69.8216 73.8706H67.8418V68.3687H69.8216V70.7267H72.7914V68.3687H74.7713V73.8706H72.7914V71.5126H69.8216V73.8706Z" fill="white"/>
<path d="M82.6945 71.5126H78.7348V73.0846H83.6844V73.8706H76.755V68.3687H83.6844V69.1547H78.7348V70.7267H82.6945V71.5126Z" fill="white"/>
<path d="M95.5558 73.8706H90.6062V74.6566H88.6263V73.0846H89.6162V72.2986H90.6062V68.3687H96.5457V73.0846H97.5356V74.6566H95.5558V73.8706ZM91.5961 73.0846H94.5658V69.1547H92.586V72.2986H91.5961V73.0846Z" fill="white"/>
<path d="M101.491 68.3687V70.7267H104.461V68.3687H106.441V73.0846H105.451V73.8706H100.502V73.0846H99.5116V72.2986H101.491V73.0846H104.461V71.5126H100.502V70.7267H99.5116V68.3687H101.491Z" fill="white"/>
<path d="M110.405 73.8706H108.425V68.3687H110.405V69.1547H111.395V69.9407H112.384V69.1547H113.374V68.3687H115.354V73.8706H113.374V71.5126H112.384V72.2986H111.395V71.5126H110.405V73.8706Z" fill="white"/>
<path d="M122.288 72.2986H119.318V73.8706H117.338V69.9407H118.328V69.1547H119.318V68.3687H122.288V69.1547H123.277V69.9407H124.267V73.8706H122.288V72.2986ZM119.318 71.5126H122.288V69.9407H121.298V69.1547H120.308V69.9407H119.318V71.5126Z" fill="white"/>
<path d="M130.211 66.0107H132.191V66.7967H131.201V67.5827H127.241V66.7967H126.251V66.0107H128.231V66.7967H130.211V66.0107ZM128.231 70.7267V68.3687H126.251V73.8706H128.231V73.0846H129.221V72.2986H130.211V71.5126H131.201V73.8706H133.181V68.3687H131.201V69.1547H130.211V69.9407H129.221V70.7267H128.231Z" fill="white"/>
<path d="M135.164 69.1547H136.154V68.3687H138.134V69.1547H139.124V70.7267H138.134V72.2986H136.154V70.7267H135.164V69.1547ZM136.154 73.0846H138.134V73.8706H136.154V73.0846Z" fill="white"/>
</g>
<defs>
<clipPath id="clip0">
<rect width="220" height="145" fill="white"/>
</clipPath>
</defs>
</svg>
