<svg width="220" height="145" viewBox="0 0 220 145" fill="none" xmlns="http://www.w3.org/2000/svg">
<g clip-path="url(#clip0)">
<path d="M121 94H99V138H121V94Z" fill="white"/>
<path d="M220 0H0V112.495H220V0Z" fill="white"/>
<path d="M211.146 8.17969H8.85352V104.309H211.146V8.17969Z" fill="black"/>
<path d="M189.691 145H30.3096C35.3243 141.872 42.0475 138.355 50.4011 135.676C56.2473 133.803 61.6064 132.743 66.1794 132.145C80.6066 131.794 95.3261 131.599 110.338 131.586C123.68 131.573 136.795 131.703 149.67 131.956C154.958 132.503 161.285 133.582 168.229 135.676C177.076 138.342 184.267 141.846 189.691 145Z" fill="white"/>
<path d="M30.309 15.3779H19.2207V56.2445H30.309V15.3779Z" fill="white"/>
<path d="M30.309 84.165H19.2207V95.2644H30.309V84.165Z" fill="white"/>
<path d="M30.309 64.6582H19.2207V75.7575H30.309V64.6582Z" fill="white"/>
<rect x="14" y="15" width="191" height="87" fill="black"/>
<path d="M101.214 32.4145C101.214 34.6984 95.0426 36.5498 87.4298 36.5498C82.6352 36.5498 79.159 35.3667 76.6895 34.2524C76.1383 34.0037 75.5022 33.8458 75.1388 33.5632C74.7271 33.243 73.2898 34.3443 73.2021 33.9023C73.1634 33.707 73.276 33.2768 73.6455 32.4145C73.6455 30.1307 81.3677 25.8096 88.9805 25.8096C96.5934 25.8096 101.214 30.1307 101.214 32.4145Z" fill="white"/>
<circle cx="88.2337" cy="30.8069" r="3.90555" fill="black"/>
<path d="M183.126 32.0171C183.126 34.3009 176.955 36.1524 169.342 36.1524C164.547 36.1524 161.071 34.9692 158.602 33.855C158.05 33.6063 157.414 33.4484 157.051 33.1658C156.639 32.8456 155.202 33.9468 155.114 33.5048C155.076 33.3095 155.188 32.8793 155.558 32.0171C155.558 29.7332 163.28 25.4121 170.893 25.4121C178.505 25.4121 183.126 29.7332 183.126 32.0171Z" fill="white"/>
<circle cx="170.147" cy="30.4085" r="3.90555" fill="black"/>
<path d="M101.214 60.5141C101.214 62.798 95.0426 64.6494 87.4298 64.6494C82.6352 64.6494 79.159 63.4663 76.6895 62.3521C76.1383 62.1033 75.5022 61.9455 75.1388 61.6628C74.7271 61.3426 73.2898 62.4439 73.2021 62.0019C73.1634 61.8066 73.276 61.3764 73.6455 60.5141C73.6455 58.2303 81.3677 53.9092 88.9805 53.9092C96.5934 53.9092 101.214 58.2303 101.214 60.5141Z" fill="white"/>
<circle cx="88.2337" cy="58.9065" r="3.90555" fill="black"/>
<path d="M183.126 60.1157C183.126 62.3996 176.955 64.251 169.342 64.251C164.547 64.251 161.071 63.0679 158.602 61.9536C158.05 61.7049 157.414 61.547 157.051 61.2644C156.639 60.9442 155.202 62.0454 155.114 61.6034C155.076 61.4082 155.188 60.978 155.558 60.1157C155.558 57.8319 163.28 53.5107 170.893 53.5107C178.505 53.5107 183.126 57.8319 183.126 60.1157Z" fill="white"/>
<circle cx="170.147" cy="58.5081" r="3.90555" fill="black"/>
<path d="M183.126 88.2153C183.126 90.4992 176.955 92.3506 169.342 92.3506C164.547 92.3506 161.071 91.1675 158.602 90.0532C158.05 89.8045 157.414 89.6466 157.051 89.364C156.639 89.0438 155.202 90.145 155.114 89.703C155.076 89.5078 155.188 89.0776 155.558 88.2153C155.558 85.9315 163.28 81.6104 170.893 81.6104C178.505 81.6104 183.126 85.9315 183.126 88.2153Z" fill="white"/>
<circle cx="170.147" cy="86.6077" r="3.90555" fill="black"/>
<path d="M101.214 88.2153C101.214 90.4992 95.0426 92.3506 87.4298 92.3506C82.6352 92.3506 79.159 91.1675 76.6895 90.0532C76.1383 89.8045 75.5022 89.6466 75.1388 89.364C74.7271 89.0438 73.2898 90.145 73.2021 89.703C73.1634 89.5078 73.276 89.0776 73.6455 88.2153C73.6455 85.9315 81.3677 81.6104 88.9805 81.6104C96.5934 81.6104 101.214 85.9315 101.214 88.2153Z" fill="white"/>
<circle cx="88.2337" cy="86.6077" r="3.90555" fill="black"/>
<path d="M33.6162 32.4155C33.6162 34.6994 39.7732 36.5508 47.3682 36.5508C52.1515 36.5508 55.6196 35.3677 58.0833 34.2534C58.6332 34.0047 59.2679 33.8468 59.6304 33.5642C60.0411 33.244 61.475 34.3452 61.5625 33.9032C61.6011 33.708 61.4888 33.2778 61.1202 32.4155C61.1202 30.1317 53.4161 25.8105 45.8211 25.8105C38.2261 25.8105 33.6162 30.1317 33.6162 32.4155Z" fill="white"/>
<ellipse rx="3.89639" ry="3.90555" transform="matrix(-1 0 0 1 46.5655 30.8079)" fill="black"/>
<path d="M115.53 32.0171C115.53 34.3009 121.687 36.1524 129.282 36.1524C134.066 36.1524 137.534 34.9692 139.997 33.855C140.547 33.6063 141.182 33.4484 141.544 33.1658C141.955 32.8456 143.389 33.9468 143.477 33.5048C143.515 33.3095 143.403 32.8793 143.034 32.0171C143.034 29.7332 135.33 25.4121 127.735 25.4121C120.14 25.4121 115.53 29.7332 115.53 32.0171Z" fill="white"/>
<ellipse rx="3.89639" ry="3.90555" transform="matrix(-1 0 0 1 128.48 30.4095)" fill="black"/>
<path d="M33.6162 60.5141C33.6162 62.798 39.7732 64.6494 47.3682 64.6494C52.1515 64.6494 55.6196 63.4663 58.0833 62.3521C58.6332 62.1033 59.2679 61.9455 59.6304 61.6628C60.0411 61.3426 61.475 62.4439 61.5625 62.0019C61.6011 61.8066 61.4888 61.3764 61.1202 60.5141C61.1202 58.2303 53.4161 53.9092 45.8211 53.9092C38.2261 53.9092 33.6162 58.2303 33.6162 60.5141Z" fill="white"/>
<ellipse rx="3.89639" ry="3.90555" transform="matrix(-1 0 0 1 46.5655 58.9065)" fill="black"/>
<path d="M115.53 60.1167C115.53 62.4005 121.687 64.252 129.282 64.252C134.066 64.252 137.534 63.0688 139.997 61.9546C140.547 61.7059 141.182 61.548 141.544 61.2654C141.955 60.9452 143.389 62.0464 143.477 61.6044C143.515 61.4092 143.403 60.9789 143.034 60.1167C143.034 57.8328 135.33 53.5117 127.735 53.5117C120.14 53.5117 115.53 57.8328 115.53 60.1167Z" fill="white"/>
<ellipse rx="3.89639" ry="3.90555" transform="matrix(-1 0 0 1 128.48 58.5091)" fill="black"/>
<path d="M115.53 88.2163C115.53 90.5002 121.687 92.3516 129.282 92.3516C134.066 92.3516 137.534 91.1685 139.997 90.0542C140.547 89.8055 141.182 89.6476 141.544 89.365C141.955 89.0448 143.389 90.146 143.477 89.704C143.515 89.5088 143.403 89.0786 143.034 88.2163C143.034 85.9324 135.33 81.6113 127.735 81.6113C120.14 81.6113 115.53 85.9324 115.53 88.2163Z" fill="white"/>
<ellipse rx="3.89639" ry="3.90555" transform="matrix(-1 0 0 1 128.48 86.6087)" fill="black"/>
<path d="M33.6162 88.2163C33.6162 90.5002 39.7732 92.3516 47.3682 92.3516C52.1515 92.3516 55.6196 91.1685 58.0833 90.0542C58.6332 89.8055 59.2679 89.6476 59.6304 89.365C60.0411 89.0448 61.475 90.146 61.5625 89.704C61.6011 89.5088 61.4888 89.0786 61.1202 88.2163C61.1202 85.9324 53.4161 81.6113 45.8211 81.6113C38.2261 81.6113 33.6162 85.9324 33.6162 88.2163Z" fill="white"/>
<ellipse rx="3.89639" ry="3.90555" transform="matrix(-1 0 0 1 46.5655 86.6087)" fill="black"/>
</g>
<defs>
<clipPath id="clip0">
<rect width="220" height="145" fill="white"/>
</clipPath>
</defs>
</svg>
