<svg width="220" height="145" viewBox="0 0 220 145" fill="none" xmlns="http://www.w3.org/2000/svg">
<g clip-path="url(#clip0)">
<path d="M121 94H99V138H121V94Z" fill="white"/>
<path d="M220 0H0V112.495H220V0Z" fill="white"/>
<path d="M211.146 8.17969H8.85352V104.309H211.146V8.17969Z" fill="black"/>
<path d="M189.691 145H30.3096C35.3243 141.872 42.0475 138.355 50.4011 135.676C56.2473 133.803 61.6064 132.743 66.1794 132.145C80.6066 131.794 95.3261 131.599 110.338 131.586C123.68 131.573 136.795 131.703 149.67 131.956C154.958 132.503 161.285 133.582 168.229 135.676C177.076 138.342 184.267 141.846 189.691 145Z" fill="white"/>
<path d="M30.309 15.3779H19.2207V56.2445H30.309V15.3779Z" fill="white"/>
<path d="M30.309 84.165H19.2207V95.2644H30.309V84.165Z" fill="white"/>
<path d="M30.309 64.6582H19.2207V75.7575H30.309V64.6582Z" fill="white"/>
<rect x="9" y="8" width="202" height="96" fill="#FFF735"/>
<path d="M128.52 76.3541C130.63 73.9282 135.652 67.4793 136.098 58.2796C136.522 49.5618 133.076 35.4246 120.33 31.2062C110.362 27.906 95.5339 31.0091 89.1141 43.7043C82.821 56.1476 87.6988 70.2137 98.1166 75.1293C109.641 80.567 125.257 73.7019 129.332 62.6312C132.448 54.1653 128.22 44.8616 123.258 40.1358C122.102 39.0333 120.373 37.4233 117.558 36.5216C110.865 34.3805 99.581 36.7516 95.0098 46.477C91.1746 54.6399 93.481 64.9749 101.373 68.6895C110.495 72.9827 120.77 65.4605 123.436 59.8567C124.886 56.8066 125.024 53.6232 125.024 53.6232C125.064 52.7215 125.143 50.2773 124.066 47.8077C122.065 43.2133 117.482 41.7932 116.456 41.5102C111.28 40.081 102.616 41.6015 99.4827 48.5816C97.1743 53.7254 98.1809 61.1417 103.844 63.8067C110.209 66.8021 116.984 61.5543 118.967 57.7521C119.752 56.2462 120.12 54.43 120.12 54.43C120.292 53.4516 120.869 50.668 119.735 48.3133C118.014 44.7356 113.482 44.4235 112.517 44.387C111.989 44.3669 104.85 44.219 102.3 49.9086C100.624 53.6469 101.403 58.8509 105.401 60.731C109.819 62.8101 114.589 59.3347 116.152 56.4269C116.687 55.4321 116.903 54.3971 116.975 54.0412C117.143 53.2125 117.701 50.3668 116.106 48.4228C114.685 46.6887 112.402 46.7143 111.548 46.7234C110.846 46.7307 105.995 46.884 104.268 50.8341C103.11 53.479 103.615 57.23 106.487 58.5826C109.628 60.0611 113.026 57.6261 114.184 55.5014C114.581 54.7731 114.721 54.0704 114.774 53.7929C115.051 52.3491 114.914 50.2956 113.781 49.2168C111.83 47.3604 107.074 48.5287 105.832 51.5697C105.144 53.2563 105.367 55.9377 107.352 56.8741C109.227 57.7594 111.645 56.6058 112.621 54.764C113.386 53.3202 113.45 51.1042 112.161 50.2408C111.363 49.706 109.999 50.0145 109.87 50.0437C109.435 50.1386 109.117 50.2865 109.011 50.3376C108.871 50.4051 108.186 50.7483 107.55 51.5259C107.407 51.7029 107.229 51.9201 107.108 52.1684C106.661 53.081 106.737 54.8571 108.056 55.4795C109.251 56.0436 110.816 55.3536 111.344 54.1635C111.726 53.3019 111.609 52.0789 110.803 51.5678C110.298 51.2466 109.439 51.1535 108.811 51.7157C108.29 52.1812 107.95 53.0774 108.324 53.6597C108.763 54.3424 109.963 54.2493 110.247 53.7893C110.525 53.3421 110.023 52.4331 109.715 52.4531C109.507 52.4677 109.363 52.9113 109.272 53.3311C109.191 53.249 109.111 53.1668 109.03 53.0847C109.106 52.8365 109.348 52.1191 109.724 52.0954C110.211 52.0643 110.896 53.1997 110.563 53.8367C110.211 54.5066 108.731 54.6216 108.088 53.9773C107.42 53.3092 107.76 51.9293 108.633 51.2813C109.397 50.7154 110.493 50.7665 111.206 51.2557C112.237 51.9621 112.213 53.3987 111.836 54.2712C111.255 55.6183 109.408 56.6058 107.855 55.8902C106.184 55.1199 106.112 52.9569 106.648 51.8873C106.826 51.5332 107.098 51.2393 107.342 50.9783C107.605 50.6953 108.171 50.1003 109.111 49.6859C109.329 49.591 109.728 49.4176 110.269 49.3355C111.051 49.2168 112.112 49.2898 112.784 49.7133C114.165 50.5876 114.29 53.2106 113.318 54.9684C112.233 56.9289 109.422 58.4731 107.197 57.4199C104.92 56.3411 104.623 53.1906 105.431 51.2575C106.862 47.8369 112.447 46.5737 114.667 48.525C116.468 50.1094 115.857 53.6451 115.821 53.8404C115.762 54.158 115.603 54.9794 115.136 55.8245C113.736 58.3544 109.62 61.0103 106.196 59.404C102.907 57.8616 102.359 53.3786 103.617 50.4033C105.165 46.7453 109.352 45.5789 112.074 45.6282C112.977 45.6446 115.698 45.6957 117.368 47.6032C119.232 49.7279 118.629 52.831 118.377 54.1306C118.305 54.503 118.057 55.7314 117.42 56.9015C115.539 60.3514 109.779 64.1736 104.932 61.9011C100.353 59.7545 99.5016 53.5374 101.331 49.3282C103.447 44.4618 109.007 42.6 113.2 42.9158C113.673 42.9504 119.586 43.4743 121.586 47.4773C122.961 50.2299 122.159 53.9809 122.032 54.5833C121.898 55.2094 121.705 55.8574 121.705 55.8574C121.705 55.8574 121.295 57.23 120.695 58.4421C119.921 60.0046 111.344 69.3156 103.127 65.4751C96.6691 62.456 95.4544 53.6633 98.0617 47.7894C101.379 40.3147 110.928 37.4726 117.779 39.5736C118.485 39.7908 124.191 41.6325 126.619 46.8877C127.879 49.6147 127.782 52.2359 127.731 53.6451C127.731 53.6451 127.593 57.3907 125.888 60.8862C122.814 67.1909 110.858 76.1314 100.258 71.1464C90.6788 66.6415 88.87 53.8933 92.868 45.3435C97.5452 35.337 110.273 30.8594 119.06 33.7781C122.278 34.8478 124.293 36.6841 125.682 37.9764C132.023 43.8777 136.145 54.5504 132.738 64.1097C128.072 77.201 110.358 85.1796 96.4762 78.6266C82.5353 72.0463 79.8486 54.3004 86.0187 42.1199C92.5255 29.2732 108.799 22.7805 122.28 27.603C136.959 32.8527 141.089 48.9266 140.597 59.0535C140.079 69.7391 134.246 77.2302 131.794 80.0486C130.7 78.8165 129.61 77.5844 128.52 76.3541Z" fill="black" stroke="black" stroke-miterlimit="10"/>
<path d="M102.09 18.0518L116.909 89.0135" stroke="#FFF735" stroke-miterlimit="10"/>
<path d="M106.173 17.4795L112.825 89.5839" stroke="#FFF735" stroke-miterlimit="10"/>
<path d="M109.989 17.3418L109.011 89.7237" stroke="#FFF735" stroke-miterlimit="10"/>
<path d="M113.064 17.502L105.937 89.5626" stroke="#FFF735" stroke-miterlimit="10"/>
<path d="M113.11 17L105.984 89.0624" stroke="#FFF735" stroke-miterlimit="10"/>
<path d="M116.772 18.0234L102.226 89.04" stroke="#FFF735" stroke-miterlimit="10"/>
<path d="M120.165 18.8311L98.8359 88.234" stroke="#FFF735" stroke-miterlimit="10"/>
<path d="M124.062 20.1758L94.9355 86.8882" stroke="#FFF735" stroke-miterlimit="10"/>
<path d="M128.258 22.1875L90.7402 84.8769" stroke="#FFF735" stroke-miterlimit="10"/>
<path d="M131.968 24.5459L87.0312 82.5186" stroke="#FFF735" stroke-miterlimit="10"/>
<path d="M135.189 27.1543L83.8096 79.9102" stroke="#FFF735" stroke-miterlimit="10"/>
<path d="M138.09 30.0957L80.9092 76.9703" stroke="#FFF735" stroke-miterlimit="10"/>
<path d="M140.976 33.8369L78.0244 73.2277" stroke="#FFF735" stroke-miterlimit="10"/>
<path d="M143.059 37.3506L75.9414 69.7138" stroke="#FFF735" stroke-miterlimit="10"/>
<path d="M144.506 40.5156L74.4912 66.5486" stroke="#FFF735" stroke-miterlimit="10"/>
<path d="M145.832 44.5117L73.165 62.5533" stroke="#FFF735" stroke-miterlimit="10"/>
<path d="M146.661 48.5586L72.3389 58.5067" stroke="#FFF735" stroke-miterlimit="10"/>
<path d="M147 52.4131L72 54.651" stroke="#FFF735" stroke-miterlimit="10"/>
<path d="M146.945 55.7585L72.0527 51.3047" stroke="#FFF735" stroke-miterlimit="10"/>
<path d="M146.629 58.726L72.3711 48.3398" stroke="#FFF735" stroke-miterlimit="10"/>
<path d="M145.961 62.0548L73.0371 45.0098" stroke="#FFF735" stroke-miterlimit="10"/>
<path d="M144.986 65.286L74.0156 41.7793" stroke="#FFF735" stroke-miterlimit="10"/>
<path d="M143.774 68.2532L75.2256 38.8105" stroke="#FFF735" stroke-miterlimit="10"/>
<path d="M142.38 70.9645L76.6211 36.1006" stroke="#FFF735" stroke-miterlimit="10"/>
<path d="M140.554 73.841L78.4443 33.2236" stroke="#FFF735" stroke-miterlimit="10"/>
<path d="M138.335 76.6884L80.666 30.376" stroke="#FFF735" stroke-miterlimit="10"/>
<path d="M135.483 79.6394L83.5156 27.4238" stroke="#FFF735" stroke-miterlimit="10"/>
<path d="M132.675 81.9969L86.3252 25.0684" stroke="#FFF735" stroke-miterlimit="10"/>
<path d="M129.688 84.0408L89.3125 23.0234" stroke="#FFF735" stroke-miterlimit="10"/>
<path d="M125.349 86.3391L93.6514 20.7256" stroke="#FFF735" stroke-miterlimit="10"/>
<path d="M121.495 87.8271L97.5059 19.2383" stroke="#FFF735" stroke-miterlimit="10"/>
</g>
<defs>
<clipPath id="clip0">
<rect width="220" height="145" fill="white"/>
</clipPath>
</defs>
</svg>
