<svg width="220" height="145" viewBox="0 0 220 145" fill="none" xmlns="http://www.w3.org/2000/svg">
<g clip-path="url(#clip0)">
<path d="M121 94H99V138H121V94Z" fill="white"/>
<path d="M220 0H0V112.495H220V0Z" fill="white"/>
<path d="M211.146 8.17969H8.85352V104.309H211.146V8.17969Z" fill="black"/>
<path d="M189.691 145H30.3096C35.3243 141.872 42.0475 138.355 50.4011 135.676C56.2473 133.803 61.6064 132.743 66.1794 132.145C80.6066 131.794 95.3261 131.599 110.338 131.586C123.68 131.573 136.795 131.703 149.67 131.956C154.958 132.503 161.285 133.582 168.229 135.676C177.076 138.342 184.267 141.846 189.691 145Z" fill="white"/>
<path d="M104.058 50.086C109.522 45.0641 109.5 34 109.5 34C109.5 34 110.675 45.3504 116.835 50.086C122.539 54.4715 136 56 136 56C136 56 122.483 56.6028 116.835 61.2043C111.069 65.9021 109.5 78 109.5 78C109.5 78 109.132 67.7872 104.058 62.8602C98.19 57.1625 83 56 83 56C83 56 98.0946 55.5668 104.058 50.086Z" fill="white"/>
</g>
<defs>
<clipPath id="clip0">
<rect width="220" height="145" fill="white"/>
</clipPath>
</defs>
</svg>
